<svg xmlns="http://www.w3.org/2000/svg" viewBox="0 0 48 48">
  <path d="M39.142,15.52L24.929,4.321c-0.545-0.428-1.312-0.428-1.857,0L8.859,15.52C7.054,16.942,6,19.114,6,21.413V37.5c0,3.038,2.462,5.5,5.5,5.5h25c3.038,0,5.5-2.462,5.5-5.5V21.411C42,19.113,40.947,16.942,39.142,15.52z M36,26.611c0,2.91-2.322,5.273-5.209,5.371C30.142,34.296,28.018,36,25.5,36h-5c-3.032,0-5.5-2.468-5.5-5.5V22c0-1.654,1.346-3,3-3h10c1.654,0,3,1.346,3,3h1.944C34.629,22,36,23.371,36,25.056V26.611z M31,25.026l2,0.03v1.556c0,1.184-0.868,2.162-2,2.349V25.026z" fill="#FFFFFF" />
</svg>