<svg xmlns="http://www.w3.org/2000/svg" viewBox="0 0 48 48">
  <path d="M19.207031 4C16.671031 4 14.562719 6.144 14.011719 9L23 9C23.553 9 24 9.448 24 10C24 10.552 23.553 11 23 11L11.470703 11C10.570703 11.974 10 13.319359 10 14.818359L10 17C10 17.552 10.447 18 11 18L11.625 18L36.375 18L37 18C37.553 18 38 17.552 38 17L38 14.818359C38 12.219359 36.319656 10.046594 34.097656 9.5585938C33.733656 6.4215938 31.493969 4 28.792969 4L19.207031 4 z M 11.894531 20L12.970703 28L19.673828 28C20.538828 26.208 22.15 25 24 25C25.85 25 27.461172 26.208 28.326172 28L35.029297 28L36.105469 20L11.894531 20 z M 13.777344 34L14.539062 39.664062C14.874063 42.136063 17.007 44 19.5 44L28.5 44C30.993 44 33.125938 42.135109 33.460938 39.662109L34.222656 34L28.326172 34C27.461172 35.792 25.85 37 24 37C22.15 37 20.538828 35.792 19.673828 34L13.777344 34 z" fill="#FFFFFF" />
</svg>