<svg xmlns="http://www.w3.org/2000/svg" viewBox="0 0 48 48">
  <path d="M12.5 6C8.916 6 6 8.916 6 12.5L6 35.5C6 39.084 8.916 42 12.5 42L35.5 42C39.084 42 42 39.084 42 35.5L42 12.5C42 8.916 39.084 6 35.5 6L12.5 6 z M 13.828125 14L20.265625 14L25.123047 20.943359L31.136719 14L33.136719 14L26.025391 22.234375L34.257812 34L27.820312 34L22.470703 26.351562L15.865234 34L13.822266 34L21.564453 25.056641L13.828125 14 z M 16.935547 15.695312L28.587891 32.304688L31.150391 32.304688L19.498047 15.695312L16.935547 15.695312 z" fill="#FFFFFF" />
</svg>