<svg xmlns="http://www.w3.org/2000/svg" viewBox="0 0 48 48">
  <path d="M16.5 5.5C9.49 5.5 4 13.736 4 24.25C4 34.764 9.49 43 16.5 43C17.145 43 17.787922 42.919391 18.419922 42.775391C18.300922 42.698391 18.177547 42.626922 18.060547 42.544922C14.941547 40.349922 13.363234 36.523531 13.615234 31.769531C13.755234 29.144531 14.458672 26.396797 15.638672 23.716797C15.442672 23.578797 15.272203 23.400875 15.158203 23.171875C12.796203 18.446875 15.149953 14.819969 15.251953 14.667969C15.711953 13.978969 16.644031 13.791953 17.332031 14.251953C18.018031 14.708953 18.205859 15.633312 17.755859 16.320312C17.688859 16.427312 16.692125 18.085656 17.328125 20.472656C17.684125 19.883656 18.058937 19.298563 18.460938 18.726562C20.200937 16.256563 22.237578 14.153562 24.517578 12.476562C25.035578 12.095562 25.563703 11.751828 26.095703 11.423828C24.322703 8.2588281 21.868 5.5 16.5 5.5 z M 34.919922 10.654297C32.041922 10.654297 28.778125 11.826844 25.703125 14.089844C23.597125 15.639844 21.710703 17.587859 20.095703 19.880859C17.414703 23.689859 15.823281 27.948 15.613281 31.875C15.398281 35.915 16.676891 39.123203 19.212891 40.908203C20.629891 41.905203 22.309188 42.378906 24.117188 42.378906C28.994187 42.378906 34.804297 38.942141 38.904297 33.119141C41.585297 29.310141 43.176719 25.052 43.386719 21.125C43.601719 17.085 42.323109 13.876797 39.787109 12.091797C38.417109 11.127797 36.746922 10.654297 34.919922 10.654297 z M 35.511719 15.001953C36.210174 15.006164 36.828953 15.494578 36.970703 16.205078C37.018703 16.444078 38.109594 22.101578 35.308594 25.517578C33.957594 27.165578 32.004 28 29.5 28C27.525 28 26.183484 28.517078 25.396484 29.580078C23.715484 31.851078 24.922547 36.019547 24.935547 36.060547C25.177547 36.852547 24.731453 37.691594 23.939453 37.933594C23.792453 37.978594 23.644047 38 23.498047 38C22.856047 38 22.262453 37.5845 22.064453 36.9375C21.995453 36.7085 20.386375 31.305922 22.984375 27.794922C24.356375 25.940922 26.549 25 29.5 25C31.081 25 32.221375 24.548141 32.984375 23.619141C34.563375 21.701141 34.272344 18.040016 34.027344 16.791016C33.868344 15.979016 34.396984 15.189297 35.208984 15.029297C35.310859 15.009297 35.411939 15.001352 35.511719 15.001953 z" fill="#FFFFFF" />
</svg>